<?xml version="1.0" encoding="utf-8"?>
<!-- Generator: Adobe Illustrator 24.0.0, SVG Export Plug-In . SVG Version: 6.00 Build 0)  -->
<svg version="1.1" id="Capa_1" xmlns="http://www.w3.org/2000/svg" xmlns:xlink="http://www.w3.org/1999/xlink" x="0px" y="0px"
	 viewBox="0 0 132 39.1" style="enable-background:new 0 0 132 39.1;" xml:space="preserve">
<style type="text/css">
	.st0{fill:#A6A6A6;}
	.st1{fill:#FFFFFF;}
</style>
<g id="Download_on_the_App_Store_Badge_ESMX_RGB_blk_100217" transform="translate(0 0)">
	<g id="Group_9" transform="translate(0 0)">
		<g id="Group_7" transform="translate(0 0)">
			<path id="Path_283" class="st0" d="M108.2,0H9.8C9.5,0,9.1,0,8.8,0C8.5,0,8.2,0,7.9,0c-0.7,0-1.3,0.1-2,0.2
				C5.2,0.3,4.6,0.5,4,0.8C3.5,1.1,2.9,1.5,2.5,2C2,2.4,1.6,3,1.3,3.5C1,4.1,0.8,4.8,0.7,5.4C0.6,6,0.5,6.7,0.5,7.4
				c0,0.3,0,0.6,0,0.9v22.6c0,0.3,0,0.6,0,0.9c0,0.7,0.1,1.3,0.2,2C0.8,34.4,1,35,1.3,35.6c0.3,0.6,0.7,1.1,1.2,1.6
				c0.5,0.5,1,0.9,1.6,1.2c0.6,0.3,1.2,0.5,1.9,0.6c0.6,0.1,1.3,0.2,2,0.2c0.3,0,0.6,0,0.9,0c0.4,0,0.7,0,1.1,0h98.4
				c0.4,0,0.7,0,1.1,0c0.3,0,0.6,0,0.9,0c0.7,0,1.3-0.1,2-0.2c0.6-0.1,1.3-0.3,1.9-0.6c0.6-0.3,1.1-0.7,1.6-1.2
				c0.5-0.5,0.9-1,1.2-1.6c0.3-0.6,0.5-1.2,0.6-1.9c0.1-0.6,0.2-1.3,0.2-2c0-0.3,0-0.6,0-0.9c0-0.4,0-0.7,0-1.1V9.3
				c0-0.4,0-0.7,0-1.1c0-0.3,0-0.6,0-0.9c0-0.7-0.1-1.3-0.2-2c-0.1-0.6-0.3-1.3-0.6-1.9c-0.6-1.2-1.6-2.1-2.7-2.7
				c-0.6-0.3-1.2-0.5-1.9-0.6c-0.6-0.1-1.3-0.2-2-0.2c-0.3,0-0.6,0-0.9,0C108.9,0,108.5,0,108.2,0L108.2,0z"/>
			<path id="Path_284" d="M8.8,38.3c-0.3,0-0.6,0-0.9,0c-0.6,0-1.2-0.1-1.8-0.2c-0.6-0.1-1.1-0.3-1.6-0.5c-0.5-0.3-1-0.6-1.4-1
				c-0.4-0.4-0.7-0.9-1-1.4c-0.3-0.5-0.4-1.1-0.5-1.6c-0.1-0.6-0.2-1.2-0.2-1.8c0-0.2,0-0.9,0-0.9V8.3c0,0,0-0.7,0-0.9
				c0-0.6,0.1-1.2,0.2-1.8C1.6,5,1.8,4.4,2.1,3.9c0.3-0.5,0.6-1,1-1.4c0.4-0.4,0.9-0.7,1.4-1C4.9,1.3,5.5,1.1,6,1
				c0.6-0.1,1.2-0.2,1.8-0.2l0.9,0h100.5l0.9,0c0.6,0,1.2,0.1,1.8,0.2c0.6,0.1,1.1,0.3,1.6,0.5c1,0.5,1.8,1.4,2.4,2.4
				c0.3,0.5,0.4,1.1,0.5,1.6c0.1,0.6,0.2,1.2,0.2,1.8c0,0.3,0,0.6,0,0.9c0,0.4,0,0.7,0,1.1v20.5c0,0.4,0,0.7,0,1.1
				c0,0.3,0,0.6,0,0.9c0,0.6-0.1,1.2-0.2,1.8c-0.1,0.6-0.3,1.1-0.5,1.6c-0.3,0.5-0.6,1-1,1.4c-0.4,0.4-0.9,0.7-1.4,1
				c-0.5,0.3-1.1,0.4-1.6,0.5c-0.6,0.1-1.2,0.2-1.8,0.2c-0.3,0-0.6,0-0.9,0h-1.1L8.8,38.3z"/>
		</g>
		<g id="_Group_" transform="translate(9.75 8.526)">
			<g id="_Group_2">
				<g id="_Group_3">
					<path id="_Path_" class="st1" d="M15,11.3c0-1.7,0.9-3.2,2.3-4.1c-0.9-1.3-2.3-2.1-3.9-2.1c-1.6-0.2-3.2,1-4.1,1
						c-0.9,0-2.1-1-3.5-0.9C3.9,5.3,2.3,6.3,1.4,7.9c-1.9,3.3-0.5,8.1,1.3,10.7c0.9,1.3,2,2.7,3.4,2.7c1.4-0.1,1.9-0.9,3.5-0.9
						c1.6,0,2.1,0.9,3.5,0.8c1.5,0,2.4-1.3,3.2-2.6c0.7-0.9,1.2-1.9,1.5-3C16.1,14.9,15,13.2,15,11.3z"/>
					<path id="_Path_2" class="st1" d="M12.3,3.4c0.8-1,1.2-2.2,1.1-3.4c-1.2,0.1-2.3,0.7-3.1,1.6C9.5,2.5,9.1,3.7,9.1,4.9
						C10.4,4.9,11.5,4.4,12.3,3.4z"/>
				</g>
			</g>
			<g id="Group_8" transform="translate(23.911 8.947)">
				<path id="Path_285" class="st1" d="M8.2,9.1H3.6l-1.1,3.3h-2L4.9,0.2h2l4.4,12.1h-2L8.2,9.1z M4.1,7.5h3.7L5.9,2.2H5.9L4.1,7.5z
					"/>
				<path id="Path_286" class="st1" d="M20.8,7.9c0,2.8-1.5,4.5-3.7,4.5c-1.1,0.1-2.2-0.5-2.8-1.5h0v4.4h-1.8V3.5h1.8V5h0
					c0.6-1,1.7-1.6,2.8-1.6C19.3,3.4,20.8,5.2,20.8,7.9z M18.9,7.9c0-1.8-0.9-3-2.3-3c-1.4,0-2.3,1.2-2.3,3c0,1.8,0.9,3,2.3,3
					C18,10.9,18.9,9.7,18.9,7.9L18.9,7.9z"/>
				<path id="Path_287" class="st1" d="M30.5,7.9c0,2.8-1.5,4.5-3.7,4.5c-1.1,0.1-2.2-0.5-2.8-1.5h0v4.4h-1.8V3.5h1.8V5h0
					c0.6-1,1.7-1.6,2.8-1.6C29,3.4,30.5,5.2,30.5,7.9z M28.6,7.9c0-1.8-0.9-3-2.3-3c-1.4,0-2.3,1.2-2.3,3c0,1.8,0.9,3,2.3,3
					C27.7,10.9,28.6,9.7,28.6,7.9z"/>
				<path id="Path_288" class="st1" d="M37,9c0.1,1.2,1.3,2,2.9,2c1.5,0,2.6-0.8,2.6-1.9c0-0.9-0.7-1.5-2.2-1.9l-1.6-0.4
					c-2.2-0.5-3.3-1.6-3.3-3.3c0-2.1,1.8-3.5,4.4-3.5c2.6,0,4.3,1.4,4.4,3.5h-1.8c-0.1-1.2-1.1-1.9-2.6-1.9s-2.5,0.7-2.5,1.8
					c0,0.9,0.6,1.4,2.2,1.8l1.3,0.3c2.5,0.6,3.5,1.6,3.5,3.4c0,2.3-1.8,3.7-4.7,3.7c-2.7,0-4.5-1.4-4.6-3.6L37,9z"/>
				<path id="Path_289" class="st1" d="M48.3,1.4v2.1H50v1.4h-1.7v4.9c0,0.8,0.3,1.1,1.1,1.1c0.2,0,0.4,0,0.6,0v1.4
					c-0.3,0.1-0.7,0.1-1,0.1c-1.8,0-2.5-0.7-2.5-2.4V4.9h-1.3V3.5h1.3V1.4H48.3z"/>
				<path id="Path_290" class="st1" d="M51,7.9c0-2.8,1.6-4.5,4.2-4.5s4.2,1.8,4.2,4.5s-1.6,4.5-4.2,4.5S51,10.7,51,7.9z M57.5,7.9
					c0-1.9-0.9-3-2.3-3s-2.3,1.1-2.3,3c0,1.9,0.9,3,2.3,3S57.5,9.8,57.5,7.9z"/>
				<path id="Path_291" class="st1" d="M60.9,3.5h1.7V5h0c0.2-1,1.1-1.6,2.1-1.6c0.2,0,0.4,0,0.6,0.1v1.7c-0.3-0.1-0.5-0.1-0.8-0.1
					c-1,0-1.9,0.7-1.9,1.8c0,0.1,0,0.2,0,0.3v5.3h-1.8V3.5z"/>
				<path id="Path_292" class="st1" d="M73.8,9.7c-0.2,1.6-1.8,2.7-3.8,2.7c-2.6,0-4.2-1.7-4.2-4.5s1.6-4.6,4.1-4.6
					c2.4,0,4,1.7,4,4.4v0.6h-6.3v0.1c-0.1,1.3,0.8,2.4,2.1,2.5c0.1,0,0.2,0,0.3,0c0.9,0.1,1.7-0.4,2-1.2L73.8,9.7z M67.6,7.1h4.4
					c0.1-1.2-0.8-2.2-2-2.2c-0.1,0-0.1,0-0.2,0C68.7,4.8,67.7,5.8,67.6,7.1C67.6,7.1,67.6,7.1,67.6,7.1L67.6,7.1z"/>
			</g>
		</g>
	</g>
	<g id="_Group_4" transform="translate(34.877 7.841)">
		<g id="Group_10">
			<path id="Path_293" class="st1" d="M2.6,0.7c1.4-0.1,2.7,1,2.8,2.4c0,0.2,0,0.3,0,0.5c0,1.9-1,2.9-2.7,2.9H0.5V0.7H2.6z M1.4,5.7
				h1.1C3.5,5.8,4.4,5,4.4,4c0-0.1,0-0.3,0-0.4c0.1-1-0.6-1.9-1.6-2.1c-0.1,0-0.2,0-0.4,0H1.4V5.7z"/>
			<path id="Path_294" class="st1" d="M10.3,5.3c-0.2,0.8-1,1.4-1.9,1.3c-1.1,0-2-0.8-2.1-1.9c0-0.1,0-0.2,0-0.3
				C6.2,3.2,7,2.2,8.1,2.1c0.1,0,0.2,0,0.3,0c1.2,0,2,0.8,2,2.2v0.3H7.3v0C7.2,5.3,7.7,5.8,8.3,5.9c0,0,0.1,0,0.1,0
				c0.4,0.1,0.8-0.2,1-0.5L10.3,5.3z M7.3,3.9h2.2c0-0.6-0.4-1.1-1-1.1c0,0-0.1,0-0.1,0C7.8,2.8,7.3,3.3,7.3,3.9
				C7.3,3.9,7.3,3.9,7.3,3.9z"/>
			<path id="Path_295" class="st1" d="M13.1,2c1,0,1.6,0.5,1.7,1.2H14C14,3,13.6,2.7,13.1,2.7S12.3,3,12.3,3.3
				c0,0.3,0.2,0.4,0.7,0.5L13.7,4C14.6,4.2,15,4.6,15,5.2c0,0.8-0.8,1.4-1.8,1.4s-1.7-0.5-1.8-1.3h0.9c0.2,0.4,0.6,0.6,1,0.5
				c0.5,0,0.9-0.2,0.9-0.6c0-0.3-0.2-0.4-0.6-0.5l-0.8-0.2c-0.8-0.2-1.2-0.6-1.2-1.2C11.4,2.6,12.2,2,13.1,2z"/>
			<path id="Path_296" class="st1" d="M19,3.6c-0.1-0.5-0.6-0.8-1-0.7c-0.7,0-1.2,0.6-1.2,1.5c0,1,0.4,1.5,1.2,1.5
				c0.5,0.1,0.9-0.3,1-0.7h0.8c-0.1,0.9-1,1.6-1.9,1.5c-1.1,0-2-0.8-2.1-2c0-0.1,0-0.2,0-0.3c-0.1-1.1,0.6-2.1,1.7-2.3
				c0.1,0,0.2,0,0.3,0c0.9-0.1,1.8,0.6,1.9,1.5L19,3.6z"/>
			<path id="Path_297" class="st1" d="M20.7,5.3c0-0.8,0.6-1.2,1.6-1.3l1.2-0.1V3.5c0-0.5-0.3-0.7-0.9-0.7c-0.5,0-0.8,0.2-0.9,0.5
				h-0.8C21,2.5,21.7,2,22.7,2c1.1,0,1.7,0.5,1.7,1.5v3h-0.8V5.9h-0.1c-0.3,0.5-0.8,0.7-1.3,0.7c-0.7,0.1-1.4-0.5-1.5-1.2
				C20.7,5.4,20.7,5.3,20.7,5.3z M23.5,4.9V4.5l-1.1,0.1c-0.6,0-0.9,0.2-0.9,0.6s0.3,0.6,0.8,0.6C23,5.9,23.5,5.5,23.5,4.9
				C23.5,4.9,23.5,4.9,23.5,4.9L23.5,4.9z M22.2,1.4l1-1.4h1l-1.1,1.4H22.2z"/>
			<path id="Path_298" class="st1" d="M25.8,2.1h0.8v0.7h0.1c0.2-0.5,0.7-0.8,1.2-0.7c0.1,0,0.3,0,0.4,0v0.9c-0.2,0-0.3-0.1-0.5-0.1
				c-0.6-0.1-1.1,0.4-1.1,0.9c0,0,0,0.1,0,0.1v2.6h-0.9V2.1z"/>
			<path id="Path_299" class="st1" d="M29,7h0.9c0.1,0.3,0.4,0.5,1,0.5c0.7,0,1.2-0.3,1.2-0.9V5.7H32c-0.3,0.5-0.8,0.8-1.4,0.7
				c-1.1,0-1.8-0.9-1.8-2.2c0-1.3,0.7-2.2,1.8-2.2c0.6,0,1.1,0.3,1.4,0.8h0.1V2.1H33v4.4c0,1-0.8,1.6-2,1.6C29.8,8.2,29.1,7.7,29,7z
				 M32.1,4.3c0-0.9-0.5-1.4-1.2-1.4s-1.2,0.6-1.2,1.4s0.4,1.4,1.2,1.4S32.1,5.2,32.1,4.3z"/>
			<path id="Path_300" class="st1" d="M34.1,5.3c0-0.8,0.6-1.2,1.6-1.3l1.2-0.1V3.5c0-0.5-0.3-0.7-0.9-0.7c-0.5,0-0.8,0.2-0.9,0.5
				h-0.8C34.4,2.5,35.1,2,36.1,2c1.1,0,1.7,0.5,1.7,1.5v3H37V5.9h-0.1c-0.3,0.5-0.8,0.7-1.3,0.7c-0.7,0.1-1.4-0.5-1.5-1.2
				C34.1,5.4,34.1,5.3,34.1,5.3L34.1,5.3z M36.9,4.9V4.5l-1.1,0.1c-0.6,0-0.9,0.2-0.9,0.6s0.3,0.6,0.8,0.6
				C36.4,5.9,36.9,5.5,36.9,4.9C36.9,4.9,36.9,4.9,36.9,4.9L36.9,4.9z"/>
			<path id="Path_301" class="st1" d="M39.2,0.4h0.9v6.1h-0.9V0.4z"/>
			<path id="Path_302" class="st1" d="M41.3,4.3c-0.1-1.1,0.7-2.2,1.9-2.3c1.1-0.1,2.2,0.7,2.3,1.9c0,0.1,0,0.3,0,0.4
				c0.1,1.1-0.7,2.2-1.9,2.3c-1.1,0.1-2.2-0.7-2.3-1.9C41.3,4.6,41.3,4.5,41.3,4.3z M44.5,4.3c0-1-0.4-1.5-1.2-1.5s-1.2,0.6-1.2,1.5
				s0.4,1.5,1.2,1.5S44.5,5.3,44.5,4.3z"/>
			<path id="Path_303" class="st1" d="M52.7,5.3c-0.2,0.8-1,1.4-1.9,1.3c-1.1,0-2-0.8-2.1-1.9c0-0.1,0-0.2,0-0.3
				c-0.1-1.1,0.6-2.1,1.7-2.3c0.1,0,0.2,0,0.3,0c1.2,0,2,0.8,2,2.2v0.3h-3.1v0c-0.1,0.6,0.4,1.2,1.1,1.3c0,0,0.1,0,0.1,0
				c0.4,0.1,0.8-0.2,1-0.5L52.7,5.3z M49.7,3.9h2.2c0-0.6-0.4-1.1-1-1.1c0,0-0.1,0-0.1,0C50.2,2.8,49.7,3.3,49.7,3.9
				C49.7,3.9,49.7,3.9,49.7,3.9z"/>
			<path id="Path_304" class="st1" d="M53.9,2.1h0.8v0.7h0.1C55.1,2.3,55.6,2,56.2,2c0.8-0.1,1.5,0.5,1.5,1.3c0,0.1,0,0.2,0,0.3v2.9
				h-0.9V3.9c0-0.7-0.3-1.1-0.9-1.1c-0.6,0-1,0.4-1.1,1c0,0.1,0,0.1,0,0.2v2.6h-0.9L53.9,2.1z"/>
			<path id="Path_305" class="st1" d="M65.1,5.3c-0.2,0.8-1,1.4-1.9,1.3c-1.1,0-2-0.8-2.1-1.9c0-0.1,0-0.2,0-0.3
				c-0.1-1.1,0.6-2.1,1.7-2.3c0.1,0,0.2,0,0.3,0c1.2,0,2,0.8,2,2.2v0.3h-3.1v0c-0.1,0.6,0.4,1.2,1.1,1.3c0,0,0.1,0,0.1,0
				c0.4,0.1,0.8-0.2,1-0.5H65.1z M62.1,3.9h2.2c0-0.6-0.4-1.1-1-1.1c0,0-0.1,0-0.1,0C62.6,2.8,62.1,3.3,62.1,3.9
				C62.1,3.9,62.1,3.9,62.1,3.9z"/>
			<path id="Path_306" class="st1" d="M66.4,0.4h0.9v6.1h-0.9V0.4z"/>
		</g>
	</g>
</g>
</svg>
